<?xml version="1.0" encoding="utf-8"?>
<!-- Generator: Adobe Illustrator 17.1.0, SVG Export Plug-In . SVG Version: 6.00 Build 0)  -->
<!DOCTYPE svg PUBLIC "-//W3C//DTD SVG 1.1 Tiny//EN" "http://www.w3.org/Graphics/SVG/1.1/DTD/svg11-tiny.dtd">
<svg version="1.1" baseProfile="tiny" id="Layer_1" xmlns="http://www.w3.org/2000/svg" xmlns:xlink="http://www.w3.org/1999/xlink"
	 x="0px" y="0px" viewBox="0 0 612 63.4" xml:space="preserve">
<g id="white">
	<g>
		<path fill="#FFFFFF" d="M406.5,59.9l-13.9-45.3h-0.4c0.5,9.2,0.8,15.4,0.8,18.5v26.9H382V2.1h16.7l13.7,44.2h0.2l14.5-44.2h16.7
			v57.8h-11.4V32.6c0-1.3,0-2.8,0.1-4.5c0-1.7,0.2-6.2,0.5-13.4h-0.4l-14.9,45.2H406.5z"/>
		<path fill="#FFFFFF" d="M510.7,31c0,9.6-2.4,16.9-7.1,22.1s-11.5,7.7-20.4,7.7c-8.9,0-15.6-2.6-20.4-7.7s-7.1-12.5-7.1-22.1
			c0-9.6,2.4-17,7.1-22c4.8-5.1,11.6-7.6,20.5-7.6c8.9,0,15.7,2.6,20.4,7.7C508.4,14,510.7,21.4,510.7,31z M468.6,31
			c0,6.5,1.2,11.3,3.7,14.6c2.5,3.3,6.1,4.9,11,4.9c9.8,0,14.7-6.5,14.7-19.5c0-13-4.9-19.5-14.6-19.5c-4.9,0-8.5,1.6-11,4.9
			C469.8,19.6,468.6,24.5,468.6,31z"/>
		<path fill="#FFFFFF" d="M535,37.7v22.2h-12.3V2.1h16.8c7.9,0,13.7,1.4,17.4,4.3c3.8,2.9,5.7,7.2,5.7,13c0,3.4-0.9,6.4-2.8,9.1
			s-4.5,4.7-7.9,6.2c8.7,13,14.4,21.4,17,25.2h-13.6l-13.8-22.2H535z M535,27.8h4c3.9,0,6.7-0.6,8.6-1.9c1.8-1.3,2.8-3.3,2.8-6.1
			c0-2.7-0.9-4.7-2.8-5.8c-1.9-1.2-4.8-1.7-8.8-1.7H535V27.8z"/>
		<path fill="#FFFFFF" d="M609.4,59.9h-33.3V2.1h33.3v10h-21v12.7H608v10h-19.6v14.9h21V59.9z"/>
	</g>
	<g>
		<g>
			<rect x="312.3" y="28.1" fill="#FFFFFF" width="59.6" height="5.6"/>
		</g>
		<g>
			<rect x="339.3" y="1.1" fill="#FFFFFF" width="5.6" height="59.6"/>
		</g>
	</g>
	<g>
		<path fill="#FFFFFF" d="M38.4,44.3c0,5.1-1.8,9-5.5,11.9c-3.7,2.8-8.7,4.3-15,4.3C11,60.5,5.7,59.6,2,57.8v-6.5
			c2.4,1,5,1.8,7.7,2.4c2.8,0.6,5.6,0.9,8.3,0.9c4.5,0,7.9-0.8,10.1-2.5c2.3-1.7,3.4-4.1,3.4-7.1c0-2-0.4-3.6-1.2-4.9
			c-0.8-1.3-2.1-2.5-4-3.5c-1.9-1.1-4.7-2.3-8.6-3.7c-5.4-1.9-9.2-4.2-11.5-6.8c-2.3-2.6-3.5-6.1-3.5-10.3c0-4.5,1.7-8,5-10.6
			c3.3-2.6,7.8-4,13.3-4c5.7,0,11,1.1,15.8,3.2l-2.1,5.8c-4.8-2-9.4-3-13.9-3c-3.6,0-6.3,0.8-8.3,2.3c-2,1.5-3,3.6-3,6.4
			c0,2,0.4,3.6,1.1,4.9c0.7,1.3,2,2.5,3.7,3.5c1.8,1.1,4.4,2.2,8,3.5c6.1,2.2,10.2,4.5,12.5,7C37.2,37.1,38.4,40.4,38.4,44.3z"/>
		<path fill="#FFFFFF" d="M93.8,1.9v37.4c0,6.6-2,11.8-6,15.5c-4,3.8-9.4,5.7-16.4,5.7s-12.3-1.9-16.1-5.7c-3.8-3.8-5.7-9-5.7-15.6
			V1.9h6.7v37.7c0,4.8,1.3,8.5,4,11.1c2.6,2.6,6.5,3.9,11.6,3.9c4.9,0,8.6-1.3,11.3-3.9c2.6-2.6,4-6.3,4-11.2V1.9H93.8z"/>
		<path fill="#FFFFFF" d="M145.8,18.7c0,5.8-2,10.3-6,13.5c-4,3.1-9.7,4.7-17.1,4.7h-6.8v22.7h-6.7V1.9h15
			C138.5,1.9,145.8,7.5,145.8,18.7z M115.8,31.2h6c6,0,10.3-1,12.9-2.9c2.7-1.9,4-5,4-9.2c0-3.8-1.3-6.7-3.8-8.5
			c-2.5-1.9-6.4-2.8-11.7-2.8h-7.5V31.2z"/>
		<path fill="#FFFFFF" d="M194.5,18.7c0,5.8-2,10.3-6,13.5c-4,3.1-9.7,4.7-17.1,4.7h-6.8v22.7h-6.7V1.9h15
			C187.3,1.9,194.5,7.5,194.5,18.7z M164.6,31.2h6c6,0,10.3-1,12.9-2.9c2.7-1.9,4-5,4-9.2c0-3.8-1.3-6.7-3.8-8.5
			c-2.5-1.9-6.4-2.8-11.7-2.8h-7.5V31.2z"/>
		<path fill="#FFFFFF" d="M256.7,30.7c0,9.2-2.3,16.5-7,21.8c-4.7,5.3-11.2,7.9-19.5,7.9c-8.5,0-15.1-2.6-19.7-7.8
			c-4.6-5.2-6.9-12.5-6.9-22c0-9.4,2.3-16.7,7-21.9c4.6-5.2,11.2-7.8,19.8-7.8c8.3,0,14.8,2.6,19.4,7.9
			C254.4,14.2,256.7,21.4,256.7,30.7z M210.7,30.7c0,7.8,1.7,13.8,5,17.8c3.3,4,8.2,6.1,14.5,6.1c6.4,0,11.2-2,14.5-6
			c3.3-4,4.9-10,4.9-17.8c0-7.8-1.6-13.7-4.9-17.7c-3.3-4-8.1-6-14.4-6c-6.4,0-11.3,2-14.6,6.1C212.4,17.1,210.7,23,210.7,30.7z"/>
		<path fill="#FFFFFF" d="M276.3,35.7v24h-6.7V1.9h15.8c7.1,0,12.3,1.4,15.7,4.1c3.4,2.7,5.1,6.8,5.1,12.3c0,7.6-3.9,12.8-11.6,15.5
			l15.7,26h-7.9l-14-24H276.3z M276.3,29.9h9.2c4.7,0,8.2-0.9,10.4-2.8c2.2-1.9,3.3-4.7,3.3-8.5c0-3.8-1.1-6.6-3.4-8.3
			c-2.3-1.7-5.9-2.5-10.8-2.5h-8.7V29.9z"/>
	</g>
</g>
</svg>
